# xmcd CD database file
#
# Track frame offsets:
#	215
#	11725
#	28165
#	40475
#	55615
#	66492
#	100010
#	117272
#	125512
#	145155
#	155440
#	166087
#	189200
#	201642
#
# Disc length: 2879 seconds
#
# Revision: 2
# Processed by: cddbd v1.5.1PL2 Copyright (c) Steve Scherf et al.
# Submitted via: CDex 1.51
#
DISCID=c30b3d0e
DTITLE=Various Artist - Beware Of The Texas Blues
DYEAR=1991
DGENRE=Blues
TTITLE0=Joe "Papoose" Fritz - I'm A Stepper 
TTITLE1=Henry Moore With Guitar Slim - Can't Sleep Tonight 
TTITLE2=Johnny Copeland - Working Man Blues
TTITLE3=Big Walter - Life's Highway
TTITLE4=Clarence Green - Empty House  Of So Many Tears
TTITLE5=Eastwood Revue - Drowning On Dry Land 
TTITLE6=Juke Boy Bonner - Rock Of Gibraltar
TTITLE7=T-Bone Walker - Farther On Up The Road 
TTITLE8=Johnny Winter With Calvin Johnson - Lien On Your Body 
TTITLE9=Albert Collins - The Freeze 
TTITLE10=Piano Slim - That's Fat 
TTITLE11=Johnny Copeland - Rock Me Baby 
TTITLE12=Gatemouth Brown - It's Alright 
TTITLE13=Lightning Hopkins - Good As Old Time Religion
EXTD=YEAR: 1991
EXTT0=
EXTT1=
EXTT2=
EXTT3=
EXTT4=
EXTT5=
EXTT6=
EXTT7=
EXTT8=
EXTT9=
EXTT10=
EXTT11=
EXTT12=
EXTT13=
PLAYORDER=
